<svg width="1000" height="400" viewBox="0 0 1000 400" fill="none" xmlns="http://www.w3.org/2000/svg">
  <g fill="#F4FFFB" opacity="0.72">
    <path d="M79 95c35-34 89-50 145-45 46 4 86 20 118 50 23 22 33 50 25 79-10 35-45 50-80 53-37 4-76-8-103 9-21 14-29 39-37 61-8 22-27 42-51 41-24-1-41-23-45-46-5-33 13-61 10-94-2-22-16-39-28-57-9-14-8-36 10-51 10-8 24-10 36-10z"/>
    <path d="M243 244c19-8 42-6 61 3 25 11 42 34 48 60 6 30-5 63-28 84-16 14-41 25-62 18-22-7-31-32-35-53-5-28-17-70 16-112z"/>
    <path d="M463 98c17-10 38-15 58-14 22 1 39 14 56 26 15 10 40 9 47 28 6 17-13 28-20 42-7 14-6 34-20 42-15 9-34-1-50 5-18 6-31 24-49 24-20 0-31-20-46-30-14-10-36-12-42-29-6-16 7-33 17-46 12-15 22-35 49-48z"/>
    <path d="M503 203c23-13 52-17 78-12 33 7 68 27 81 58 11 27 0 60-27 72-21 9-43 1-64 2-18 1-37 9-54 4-18-5-29-22-42-34-17-16-43-22-51-44-8-20 6-39 24-46 15-6 34-4 55 0z"/>
    <path d="M612 81c42-22 95-24 140-13 33 7 61 22 89 39 27 16 58 29 73 57 13 24 7 57-17 69-22 10-48 3-72 6-26 4-48 21-73 28-27 7-58 9-79-9-23-20-22-59-43-83-15-17-42-27-42-51 0-19 14-31 24-43z"/>
    <path d="M773 246c17-8 37-8 55-4 25 6 53 21 61 46 6 18-4 39-21 49-20 11-45 11-67 6-20-4-42-14-49-35-7-21-1-50 21-62z"/>
    <circle cx="337" cy="133" r="8"/>
    <circle cx="575" cy="160" r="7"/>
    <circle cx="873" cy="133" r="6"/>
    <circle cx="888" cy="271" r="7"/>
    <circle cx="202" cy="163" r="7"/>
    <circle cx="416" cy="271" r="6"/>
  </g>
</svg>
